<svg width="401" height="148" viewBox="0 0 401 148" fill="none" xmlns="http://www.w3.org/2000/svg">
<path d="M64.259 31.0657C74.8073 11.9035 94.9478 0 116.821 0H153.251L89.0084 116.729C78.4609 135.894 58.319 147.8 36.4434 147.8H0L64.259 31.0657Z" fill="white"/>
<path d="M151.486 31.0657C162.034 11.9035 182.174 0 204.048 0H240.478L176.235 116.729C165.687 135.894 145.546 147.8 123.67 147.8H87.2266L151.486 31.0657Z" fill="white"/>
<path fill-rule="evenodd" clip-rule="evenodd" d="M263.542 102.976H271.438L283.372 147.8H254.369C245.03 147.8 238.905 138.036 242.969 129.628L254.79 102.976H263.542Z" fill="white"/>
<path fill-rule="evenodd" clip-rule="evenodd" d="M259.034 55.1221C237.459 55.1221 217.546 66.7051 206.879 85.4585L171.422 147.8H185.257C207.906 147.8 228.625 135.046 238.827 114.824L248.973 94.7122H297.588C315.16 94.7122 331.848 87.0093 343.248 73.6371L359.032 55.1221H268.945H262.447H259.034Z" fill="white"/>
<path d="M237.872 31.8958C248.276 12.2714 268.671 0.000442114 290.882 0.000367561L400.391 0C391.237 10.0482 385.626 17.5053 379.704 25.0165C369.562 37.8794 353.711 44.4414 337.33 44.4414H231.221L237.872 31.8958Z" fill="white"/>
</svg>
